<svg height="512pt" viewBox="0 -21 512 512" width="512pt" xmlns="http://www.w3.org/2000/svg"><path d="m506.167969 396.664062c-3.605469-3.605468-8.582031-5.832031-14.089844-5.832031h-44.949219c-10.992187 0-19.910156-8.921875-19.910156-19.921875 0-5.507812-2.226562-10.480468-5.832031-14.089844-3.605469-3.605468-8.589844-5.832031-14.085938-5.832031h-118.378906c-11.003906 0-19.921875-8.917969-19.921875-19.917969 0-5.507812 2.226562-10.484374 5.832031-14.089843s8.59375-5.832031 14.089844-5.832031h162.5c11 0 19.917969-8.917969 19.917969-19.921876 0-11-8.917969-19.921874-19.917969-19.921874h-349.316406c-11.003907 0-19.921875 8.921874-19.921875 19.921874 0 5.507813 2.230468 10.480469 5.835937 14.089844 3.605469 3.605469 8.578125 5.832032 14.085938 5.832032h21.839843c11.003907 0 19.921876 8.917968 19.921876 19.921874 0 5.503907-2.226563 10.480469-5.832032 14.085938-3.605468 3.605469-8.582031 5.832031-14.089844 5.832031h-70.097656c-10.992187 0-19.910156 8.917969-19.910156 19.921875 0 5.503906 2.226562 10.480469 5.832031 14.085938 3.605469 3.605468 8.582031 5.835937 14.078125 5.835937h105.730469c11.003906 0 19.921875 8.917969 19.921875 19.917969 0 5.496094-2.226562 10.472656-5.832031 14.078125-3.609375 3.605469-8.582031 5.832031-14.089844 5.832031h-139.65625c-11.003906 0-19.921875 8.917969-19.921875 19.921875 0 5.496094 2.226562 10.480469 5.832031 14.085938s8.59375 5.835937 14.089844 5.835937h317.398437c11.003907 0 19.921876-8.917968 19.921876-19.921875 0-5.496093 2.226562-10.480469 5.832031-14.085937 3.609375-3.609375 8.59375-5.835938 14.089843-5.835938h114.914063c11.003906 0 19.921875-8.917968 19.921875-19.910156 0-5.503906-2.226562-10.480469-5.832031-14.085938zm-207.777344 32.476563h-53.777344c-5.496093 0-10.46875-2.226563-14.074219-5.832031-3.609374-3.609375-5.835937-8.582032-5.835937-14.089844 0-11 8.917969-19.917969 19.910156-19.917969h53.777344c5.503906 0 10.480469 2.226563 14.085937 5.832031 3.605469 3.605469 5.835938 8.582032 5.835938 14.085938 0 11-8.921875 19.921875-19.921875 19.921875zm0 0" fill="#d3ddea"/></svg>